<svg xmlns="http://www.w3.org/2000/svg" xmlns:xlink="http://www.w3.org/1999/xlink" xmlns:serif="http://www.serif.com/" width="100%" height="100%" viewBox="0 0 8 8" version="1.1" xml:space="preserve" style="fill-rule:evenodd;clip-rule:evenodd;stroke-linejoin:round;stroke-miterlimit:2;"><rect id="CP-Avatar" serif:id="CP Avatar" x="0" y="0" width="7.2" height="7.2" style="fill:none;"/><g id="CP-Avatar1" serif:id="CP Avatar"><path id="Face" d="M1.883,3.158l-0.528,0l-0,1.898l0.528,-0l0,0.787l0.264,0l0,0.261l0.793,0l0,0.277l0.254,0l-0,0.254l1.076,-0l0,-0.254l0.781,0l0,-0.277l0.266,0l-0,-0.261l0.264,0l-0,-3.477l-3.698,0l0,0.792Z" style="fill:#d9d9d9;"/><g id="Eyes"><rect x="2.94" y="3.513" width="1.056" height="0.876" style="fill:#fff;"/><rect x="4.524" y="3.513" width="1.056" height="0.876" style="fill:#fff;"/><path d="M5.581,4.389l-0,-0.528l-0.528,-0l-0,0.528l0.528,-0Z" style="fill:#1e1d1d;"/><path d="M3.996,4.389l0,-0.528l-0.528,-0l-0,0.528l0.528,-0Z" style="fill:#1e1d1d;"/></g><path id="Beard" d="M5.581,6.042l-0,-1.384l-0.264,-0l-0,0.133l-0.5,0l0,0.132l-1.608,0l0,0.204l-0.533,0l-0,-0.336l-0.265,0l0,-0.264l-0.264,0l0,-0.264l-0.264,0l0,0.264l-0.264,0l0,0.529l0.264,-0l0,0.528l0.264,-0l0,0.264l0.264,-0l0,0.264l0.529,0l-0,0.256l0.367,0l0,0.267l1.746,-0l-0,-0.267l0.264,0l-0,-0.326l0.264,0Zm-2.274,-0.854l0,0.534l1.378,-0l0,-0.534l-1.378,-0Z" style="fill:#a2a2a2;"/><path id="Hair" d="M5.14,0.83l-0,-0.265l-1.936,0l-0,0.265l-0.264,-0l-0,0.264l-1.321,-0l0,0.792l-0.264,0l-0,0.528l-0.264,0l-0,1.057l0.264,-0l-0,1.056l0.264,0l0,-0.969l0.528,-0l0,0.969l0.264,0l0,-2.113l3.434,0l0,-0.528l0.264,0l0,-0.792l-0.264,-0l0,-0.264l-0.705,-0Z" style="fill:#4c4c4c;"/><path id="Head" d="M4.259,6.635l-0.791,-0l-0,0.264l0.792,-0l0,-0.264l0.791,-0l0,-0.265l-0.792,0l0,0.265Zm-1.319,-0.264l-0,-0.259l-0.529,0l0,0.264l0.529,0l-0,0.259l0.528,-0l-0,-0.264l-0.528,-0Zm2.377,-0.267l-0.264,0l-0,0.264l0.264,0l-0,-0.264Zm-2.906,-0.256l-0.264,-0l0,0.264l0.264,0l0,-0.264Zm3.17,-0.008l-0.264,0l-0,0.264l0.264,0l-0,-0.264Zm-3.962,-0.784l0,-0.529l-0.264,0l-0,0.793l0.264,-0l0,0.264l0.264,-0l0,0.264l0.264,-0l0,-0.264l-0.264,-0l0,-0.528l-0.264,-0Zm3.962,-2.335l-0,-0.835l0.264,0l0,3.954l-0.264,0l-0,-2.855l-0.66,0l-0,-0.264l0.66,0Zm-1.057,2.898l0,-0.264l-1.056,0l-0,0.264l1.056,0Zm-3.433,-2.148l-0,-1.057l-0.264,0l-0,1.057l0.264,-0l-0,1.056l0.264,0l-0,-1.056l-0.264,-0Zm2.905,-0.222l0,-0.264l-1.056,0l-0,0.264l1.056,0Zm0.925,-0.264l-0.265,0l0,0.264l0.265,0l-0,-0.264Zm-3.566,-1.099l-0.264,0l-0,0.528l0.264,0l-0,-0.528Zm0.264,-1.056l0,0.264l-0.264,-0l-0,0.792l0.264,0l0,-0.792l0.528,-0l0,-0.264l-0.528,-0Zm4.49,0.792l0,0.264l-0.264,0l0,-0.264l0.264,-0Zm0.264,-0.792l0,0.792l-0.264,-0l0,-0.792l0.264,-0Zm-3.962,0.264l-0.264,-0l0,0.264l0.264,-0l0,-0.264Zm3.698,-0.264l0,0.264l-0.264,-0l0,-0.264l0.264,-0Zm-3.169,-0l-0.529,-0l0,0.264l0.529,-0l-0,-0.264l0.264,-0l-0,-0.265l-0.264,0l-0,0.265Zm2.905,-0.265l0,0.265l-0.792,-0l-0,-0.265l-0.793,0l0,0.265l-0.792,-0l-0,-0.265l-0.264,0l-0,-0.264l0.264,0l-0,0.264l0.792,0l0,-0.264l0.793,0l-0,0.264l0.792,0Z" style="fill:#1e1d1d;"/></g></svg>